{"title":"Skylar Grey - Back From The Dead ft. Big Sean, Travis Barker","uid":8983534,"size":78685726,"categoryP":"video","categoryS":"music_videos","magnet":"?xt=urn:btih:c14a37df2b7305e364e71790a770da6dfbf17efb&amp;dn=Skylar+Grey+-+Back+From+The+Dead+ft.+Big+Sean%2C+Travis+Barker&amp;tr=udp%3A%2F%2Ftracker.openbittorrent.com%3A80&amp;tr=udp%3A%2F%2Fopen.demonii.com%3A1337&amp;tr=udp%3A%2F%2Ftracker.coppersurfer.tk%3A6969&amp;tr=udp%3A%2F%2Fexodus.desync.com%3A6969","seeders":0,"leechers":1,"uploader":null,"files":10,"time":1380617969,"description":"\nGeneral\nComplete name                  : Skylar Grey - Back From The Dead ft. Big Sean, Travis Barker\nFormat                         : MPEG-4\nFormat profile                 : Base Media / Version 2\nCodec ID                       : mp42\nFile size                      : 74.6 MiB\nDuration                       : 4mn 35s\nOverall bit rate mode          : Variable\nOverall bit rate               : 2 267 Kbps\n----------------------------------------------------------\nVideo\nID                             : 1\nFormat                         : AVC\nFormat/Info                    : Advanced Video Codec\nFormat profile                 : &lt;a class=&quot;__cf_email__&quot; href=&quot;/cdn-cgi/l/email-protection&quot; data-cfemail=&quot;6e260709062e225a405e&quot;&gt;[email&amp;#160;protected]&lt;/a&gt;&lt;script cf-hash='f9e31' type=&quot;text/javascript&quot;&gt;\n/* &lt;![CDATA[ */!function(){try{var t=&quot;currentScript&quot;in document?document.currentScript:function(){for(var t=document.getElementsByTagName(&quot;script&quot;),e=t.length;e--;)if(t[e].getAttribute(&quot;cf-hash&quot;))return t[e]}();if(t&amp;&amp;t.previousSibling){var e,r,n,i,c=t.previousSibling,a=c.getAttribute(&quot;data-cfemail&quot;);if(a){for(e=&quot;&quot;,r=parseInt(a.substr(0,2),16),n=2;a.length-n;n+=2)i=parseInt(a.substr(n,2),16)^r,e+=String.fromCharCode(i);e=document.createTextNode(e),c.parentNode.replaceChild(e,c)}}}catch(u){}}();/* ]]&gt; */&lt;/script&gt;\nFormat settings, CABAC         : Yes\nFormat settings, ReFrames      : 1 frame\nCodec ID                       : avc1\nCodec ID/Info                  : Advanced Video Coding\nDuration                       : 4mn 35s\nBit rate                       : 2 073 Kbps\nMaximum bit rate               : 7 946 Kbps\nWidth                          : 1 920 pixels\nHeight                         : 1 080 pixels\nDisplay aspect ratio           : 16:9\nFrame rate mode                : Constant\nFrame rate                     : 23.976 fps\nColor space                    : YUV\nChroma subsampling             : 4:2:0\nBit depth                      : 8 bits\nScan type                      : Progressive\nBits/(Pixel*Frame)             : 0.042\nStream size                    : 68.2 MiB (91%)\n----------------------------------------------------------\nAudio\nID                             : 2\nFormat                         : AAC\nFormat/Info                    : Advanced Audio Codec\nFormat profile                 : LC\nCodec ID                       : 40\nDuration                       : 4mn 35s\nBit rate mode                  : Variable\nBit rate                       : 192 Kbps\nMaximum bit rate               : 203 Kbps\nChannel(s)                     : 2 channels\nChannel positions              : Front: L R\nSampling rate                  : 44.1 KHz\nCompression mode               : Lossy\nStream size                    : 6.32 MiB (8%)\n\n----------------------------------------------------------\nLyric\nSkylar Grey - Back From The Dead ft. Big Sean, Travis Barker.lrc\n\n----------------------------------------------------------\nTotal size        : 75.0 MBMb\n----------------------------------------------------------\nEncoded by Eisa","torrent":{"xt":"urn:btih:c14a37df2b7305e364e71790a770da6dfbf17efb","amp;dn":"Skylar+Grey+-+Back+From+The+Dead+ft.+Big+Sean%2C+Travis+Barker","amp;tr":["udp%3A%2F%2Ftracker.openbittorrent.com%3A80","udp%3A%2F%2Fopen.demonii.com%3A1337","udp%3A%2F%2Ftracker.coppersurfer.tk%3A6969","udp%3A%2F%2Fexodus.desync.com%3A6969"],"infoHash":"c14a37df2b7305e364e71790a770da6dfbf17efb","infoHashBuffer":{"type":"Buffer","data":[193,74,55,223,43,115,5,227,100,231,23,144,167,112,218,109,251,241,126,251]},"announce":[],"urlList":[]}}